<?xml version="1.0" standalone="no"?><svg xmlns="http://www.w3.org/2000/svg" viewBox="0 0 1440 320"><path fill="#393E46" fill-opacity="1" d="M0,256L24,224C48,192,96,128,144,128C192,128,240,192,288,186.7C336,181,384,107,432,101.3C480,96,528,160,576,160C624,160,672,96,720,74.7C768,53,816,75,864,106.7C912,139,960,181,1008,176C1056,171,1104,117,1152,106.7C1200,96,1248,128,1296,128C1344,128,1392,96,1416,80L1440,64L1440,320L1416,320C1392,320,1344,320,1296,320C1248,320,1200,320,1152,320C1104,320,1056,320,1008,320C960,320,912,320,864,320C816,320,768,320,720,320C672,320,624,320,576,320C528,320,480,320,432,320C384,320,336,320,288,320C240,320,192,320,144,320C96,320,48,320,24,320L0,320Z"></path></svg>